<?xml version="1.0" encoding="UTF-8" standalone="no"?>
<!-- Created with Inkscape (http://www.inkscape.org/) -->

<svg
   xmlns:dc="http://purl.org/dc/elements/1.1/"
   xmlns:cc="http://creativecommons.org/ns#"
   xmlns:rdf="http://www.w3.org/1999/02/22-rdf-syntax-ns#"
   xmlns:svg="http://www.w3.org/2000/svg"
   xmlns="http://www.w3.org/2000/svg"
   xmlns:xlink="http://www.w3.org/1999/xlink"
   xmlns:sodipodi="http://sodipodi.sourceforge.net/DTD/sodipodi-0.dtd"
   xmlns:inkscape="http://www.inkscape.org/namespaces/inkscape"
   id="svg3016"
   viewBox="0 0 615.88 569.13"
   sodipodi:docname="Tomorrow.svg"
   version="1.1"
   inkscape:version="0.91 r13725">
  <defs
     id="defs3">
    <radialGradient
       id="radialGradient4096"
       gradientUnits="userSpaceOnUse"
       cy="33.37"
       cx="15.286"
       gradientTransform="matrix(32.025 0 0 21.496 -1117.3 51.669)"
       r="16"
       inkscape:collect="always">
      <stop
         id="stop2933-1"
         stop-color="#5f8dd3"
         offset="0" />
      <stop
         id="stop2935-1"
         stop-color="#214478"
         offset="1" />
    </radialGradient>
  </defs>
  <sodipodi:namedview
     id="base"
     bordercolor="#666666"
     inkscape:pageshadow="2"
     inkscape:window-y="-8"
     pagecolor="#ffffff"
     inkscape:window-height="962"
     inkscape:window-maximized="1"
     inkscape:zoom="0.98994949"
     inkscape:window-x="-8"
     showgrid="false"
     borderopacity="1.0"
     inkscape:current-layer="layer1"
     inkscape:cx="348.77014"
     inkscape:cy="374.96981"
     inkscape:window-width="1280"
     inkscape:pageopacity="0.0"
     inkscape:document-units="mm" />
  <g
     id="layer1"
     inkscape:label="Layer 1"
     inkscape:groupmode="layer"
     transform="translate(-67.479 -26.799)">
    <g
       id="g4092"
       transform="matrix(-.92040 0 0 -.92040 -188.65 719.92)">
      <rect
         id="rect2901"
         style="stroke:#214478;stroke-width:19.448;stroke-linecap:square;fill:url(#radialGradient4096)"
         rx="59.125"
         ry="45.786"
         height="598.9"
         width="649.69"
         y="144.44"
         x="-937.7" />
      <rect
         id="rect2907"
         style="stroke:#214478;stroke-width:19.448;stroke-linecap:square;fill:none"
         rx="52.277"
         ry="52.277"
         height="598.9"
         width="649.69"
         y="144.44"
         x="-937.7" />
    </g>
    <path
       sodipodi:nodetypes="cccccccccccccccccccccccc"
       d="m 214.25044,138.46891 0,394.5801 m 79.05853,-394.5801 0,394.5801 m 79.06209,-394.5801 0,394.5801 m 79.05141,-394.5801 0,394.5801 m 79.05853,-394.5801 0,394.5801 m -395.29266,-394.5801 474.38682,0 -0.6413,394.97201 -473.74552,0.35628 0,-0.35628 0,-394.97201 m 0,79.07278 474.38682,0 m -474.38682,79.0621 474.38682,0 m -474.38682,79.07634 474.38682,0 m -474.38682,79.05853 475.6338,0"
       inkscape:connector-curvature="0"
       style="fill:#ffffff;fill-rule:evenodd;stroke:#333333;stroke-width:5.34420013"
       id="path3236" />
    <rect
       x="135.19188"
       y="82.354759"
       width="475.63379"
       height="53.442001"
       style="fill:#333366;stroke:#333333;stroke-width:5.34420013"
       id="rect3238" />
    <path
       d="m 227.6879,223.18654 c -6.07617,6.94435 -9.78501,15.15851 -12.96778,23.99144 -2.39365,8.58366 -2.31473,17.54562 -2.68299,26.41961 -0.28933,11.1438 4.02448,14.6629 11.78411,20.41076 17.67616,7.97662 34.19497,3.69505 51.45027,-3.4018 18.17593,-9.70684 17.01856,-9.53088 24.1732,-30.3258 2.68299,-9.00596 1.13106,-16.41952 -1.34149,-24.87121 -5.33968,-6.78306 -12.46801,-7.75081 -20.04351,-9.30802 -7.20725,-0.97067 -14.4671,-0.99707 -21.72695,-1.22581 l 8.07527,-10.5045 c 7.33876,0.15835 14.73013,0.0675 22.01629,1.12611 8.07528,1.60999 15.57186,2.74782 21.27979,9.92385 2.55147,8.93557 4.1823,16.75383 1.31519,26.27005 -7.28616,22.14098 -20.22763,39.70713 -40.69201,48.6515 -17.67616,7.09684 -34.98407,11.84762 -53.18631,3.92965 -8.2331,-5.89448 -13.04669,-9.64818 -12.88887,-21.40783 0.28934,-8.97369 0.23673,-18.02656 2.44626,-26.77152 2.99863,-8.82706 6.44443,-17.07935 12.36279,-24.07941 l 10.62674,-8.82707 z"
       inkscape:connector-curvature="0"
       style="fill:#ff0000"
       id="path3267" />
    <path
       d="m 205.20092,151.65127 c -4.33949,1.24698 -8.58991,2.7968 -13.02559,3.67324 -7.01872,2.76117 -14.13719,5.38696 -20.71056,9.13146 -2.4227,-3.15308 -4.89885,-6.28834 -7.6814,-9.13146 l -12.02445,12.35936 c 2.51534,2.18399 4.7029,4.6637 6.7907,7.23604 -9.24903,8.80012 -16.19293,16.57771 -19.48139,30.39425 l 13.47095,-10.6884 c -0.26009,-4.28605 3.83357,-11.10525 6.90114,-15.6977 0.52017,-0.34202 1.02965,-0.68049 1.56051,-1.00114 2.82173,3.76944 5.39764,7.67783 8.12674,11.46865 2.86093,4.93448 7.33581,8.62198 11.2442,12.69069 l 11.914,-11.914 c -3.81219,-4.00459 -8.12318,-7.69565 -11.0233,-12.4698 -1.68164,-2.29088 -3.33834,-4.58532 -5.0093,-6.90114 1.80278,-0.72681 3.55212,-1.49994 5.3442,-2.22675 4.36087,-0.90139 8.52578,-2.47259 12.80471,-3.67325 l 10.79884,-13.25005 z"
       inkscape:connector-curvature="0"
       style="fill:#333366"
       id="path3269" />
    <use
       x="0"
       y="0"
       width="180"
       height="180"
       transform="translate(78.3816,-1.6124164e-5)"
       xlink:href="#path3269"
       style="fill:#333366"
       id="use3274" />
    <use
       x="0"
       y="0"
       width="180"
       height="180"
       transform="translate(156.7632,-1.6124164e-5)"
       xlink:href="#path3269"
       style="fill:#333366"
       id="use3276" />
    <use
       x="0"
       y="0"
       width="180"
       height="180"
       transform="translate(235.1448,-1.6124164e-5)"
       xlink:href="#path3269"
       style="fill:#333366"
       id="use3278" />
    <use
       x="0"
       y="0"
       width="180"
       height="180"
       transform="translate(313.5264,-1.6124164e-5)"
       xlink:href="#path3269"
       style="fill:#333366"
       id="use3280" />
    <use
       x="0"
       y="0"
       width="180"
       height="180"
       transform="translate(399.0336,-1.6124164e-5)"
       xlink:href="#path3269"
       style="fill:#333366"
       id="use3282" />
    <use
       x="0"
       y="0"
       width="180"
       height="180"
       transform="translate(5.089816e-6,78.3816)"
       xlink:href="#path3269"
       style="fill:#333366"
       id="use3284" />
  </g>
  <metadata
     id="metadata102">
    <rdf:RDF>
      <cc:Work>
        <dc:format>image/svg+xml</dc:format>
        <dc:type
           rdf:resource="http://purl.org/dc/dcmitype/StillImage" />
        <cc:license
           rdf:resource="http://creativecommons.org/licenses/publicdomain/" />
        <dc:publisher>
          <cc:Agent
             rdf:about="http://openclipart.org/">
            <dc:title>Openclipart</dc:title>
          </cc:Agent>
        </dc:publisher>
        <dc:title></dc:title>
      </cc:Work>
      <cc:License
         rdf:about="http://creativecommons.org/licenses/publicdomain/">
        <cc:permits
           rdf:resource="http://creativecommons.org/ns#Reproduction" />
        <cc:permits
           rdf:resource="http://creativecommons.org/ns#Distribution" />
        <cc:permits
           rdf:resource="http://creativecommons.org/ns#DerivativeWorks" />
      </cc:License>
    </rdf:RDF>
  </metadata>
</svg>
